<svg width="52" height="38" viewBox="0 0 52 38" fill="none" xmlns="http://www.w3.org/2000/svg">
<path d="M17.952 20.68C17.5213 19.8867 16.898 19.286 16.082 18.878C15.2887 18.4473 14.348 18.232 13.26 18.232C11.3787 18.232 9.87133 18.8553 8.738 20.102C7.60467 21.326 7.038 22.9693 7.038 25.032C7.038 27.2307 7.62733 28.9533 8.806 30.2C10.0073 31.424 11.6507 32.036 13.736 32.036C15.164 32.036 16.3653 31.6733 17.34 30.948C18.3373 30.2227 19.0627 29.18 19.516 27.82H12.138V23.536H24.786V28.942C24.3553 30.3927 23.6187 31.7413 22.576 32.988C21.556 34.2347 20.2527 35.2433 18.666 36.014C17.0793 36.7847 15.2887 37.17 13.294 37.17C10.9367 37.17 8.82867 36.66 6.97 35.64C5.134 34.5973 3.69467 33.158 2.652 31.322C1.632 29.486 1.122 27.3893 1.122 25.032C1.122 22.6747 1.632 20.578 2.652 18.742C3.69467 16.8833 5.134 15.444 6.97 14.424C8.806 13.3813 10.9027 12.86 13.26 12.86C16.116 12.86 18.5187 13.5513 20.468 14.934C22.44 16.3167 23.7433 18.232 24.378 20.68H17.952Z" fill="#EFEFEF"/>
<path d="M49.46 37H43.646L33.922 22.278V37H28.108V13.132H33.922L43.646 27.922V13.132H49.46V37Z" fill="#DC2828"/>
</svg>
